<mxfile host="65bd71144e">
    <diagram name="Page-1" id="74b105a0-9070-1c63-61bc-23e55f88626e">
        <mxGraphModel dx="987" dy="800" grid="1" gridSize="10" guides="1" tooltips="1" connect="1" arrows="1" fold="1" page="1" pageScale="1.5" pageWidth="1169" pageHeight="826" background="none" math="0" shadow="0">
            <root>
                <mxCell id="0" style=";html=1;"/>
                <mxCell id="1" style=";html=1;" parent="0"/>
                <mxCell id="FTpakm-EZgbgmgh11vIP-7" value="" style="edgeStyle=orthogonalEdgeStyle;rounded=0;orthogonalLoop=1;jettySize=auto;html=1;fontSize=18;labelBorderColor=none;fontStyle=1;fontColor=#000000;" parent="1" source="FTpakm-EZgbgmgh11vIP-1" target="FTpakm-EZgbgmgh11vIP-6" edge="1">
                    <mxGeometry relative="1" as="geometry"/>
                </mxCell>
                <mxCell id="FTpakm-EZgbgmgh11vIP-1" value="&lt;font style=&quot;font-size: 18px;&quot;&gt;searches&lt;/font&gt;" style="rounded=1;whiteSpace=wrap;html=1;fillColor=#fff2cc;strokeColor=#d6b656;fontSize=18;labelBorderColor=none;fontStyle=1;fontColor=#000000;" parent="1" vertex="1">
                    <mxGeometry x="20" y="30" width="120" height="60" as="geometry"/>
                </mxCell>
                <mxCell id="FTpakm-EZgbgmgh11vIP-9" value="" style="edgeStyle=orthogonalEdgeStyle;rounded=0;orthogonalLoop=1;jettySize=auto;html=1;fontSize=18;labelBorderColor=none;fontStyle=1;fontColor=#000000;" parent="1" source="FTpakm-EZgbgmgh11vIP-6" target="FTpakm-EZgbgmgh11vIP-8" edge="1">
                    <mxGeometry relative="1" as="geometry"/>
                </mxCell>
                <mxCell id="FTpakm-EZgbgmgh11vIP-16" style="edgeStyle=orthogonalEdgeStyle;rounded=0;orthogonalLoop=1;jettySize=auto;html=1;exitX=1;exitY=0.75;exitDx=0;exitDy=0;fontSize=18;entryX=0;entryY=0.25;entryDx=0;entryDy=0;labelBorderColor=none;fontStyle=1;fontColor=#000000;" parent="1" source="FTpakm-EZgbgmgh11vIP-6" target="FTpakm-EZgbgmgh11vIP-18" edge="1">
                    <mxGeometry relative="1" as="geometry">
                        <mxPoint x="420" y="170" as="targetPoint"/>
                        <Array as="points">
                            <mxPoint x="360" y="75"/>
                            <mxPoint x="360" y="155"/>
                        </Array>
                    </mxGeometry>
                </mxCell>
                <mxCell id="FTpakm-EZgbgmgh11vIP-6" value="&lt;font style=&quot;font-size: 18px;&quot;&gt;async lode results&lt;/font&gt;" style="whiteSpace=wrap;html=1;rounded=1;fillColor=#f8cecc;strokeColor=#b85450;fontSize=18;labelBorderColor=none;fontStyle=1;fontColor=#000000;" parent="1" vertex="1">
                    <mxGeometry x="220" y="30" width="120" height="60" as="geometry"/>
                </mxCell>
                <mxCell id="FTpakm-EZgbgmgh11vIP-11" value="" style="edgeStyle=orthogonalEdgeStyle;rounded=0;orthogonalLoop=1;jettySize=auto;html=1;fontSize=18;labelBorderColor=none;fontStyle=1;fontColor=#000000;" parent="1" source="FTpakm-EZgbgmgh11vIP-8" target="FTpakm-EZgbgmgh11vIP-10" edge="1">
                    <mxGeometry relative="1" as="geometry"/>
                </mxCell>
                <mxCell id="FTpakm-EZgbgmgh11vIP-8" value="&lt;font style=&quot;font-size: 18px&quot;&gt;render results&lt;/font&gt;" style="whiteSpace=wrap;html=1;fillColor=#d5e8d4;strokeColor=#82b366;rounded=1;fontSize=18;labelBorderColor=none;fontStyle=1;fontColor=#000000;" parent="1" vertex="1">
                    <mxGeometry x="420" y="30" width="120" height="60" as="geometry"/>
                </mxCell>
                <mxCell id="FTpakm-EZgbgmgh11vIP-13" value="" style="edgeStyle=orthogonalEdgeStyle;rounded=0;orthogonalLoop=1;jettySize=auto;html=1;fontSize=18;labelBorderColor=none;fontStyle=1;fontColor=#000000;" parent="1" source="FTpakm-EZgbgmgh11vIP-10" target="FTpakm-EZgbgmgh11vIP-12" edge="1">
                    <mxGeometry relative="1" as="geometry">
                        <Array as="points">
                            <mxPoint x="780" y="50"/>
                            <mxPoint x="780" y="50"/>
                        </Array>
                    </mxGeometry>
                </mxCell>
                <mxCell id="FTpakm-EZgbgmgh11vIP-10" value="&lt;font style=&quot;font-size: 18px&quot;&gt;pick one&lt;/font&gt;" style="whiteSpace=wrap;html=1;fillColor=#fff2cc;strokeColor=#d6b656;rounded=1;fontSize=18;labelBorderColor=none;fontStyle=1;fontColor=#000000;" parent="1" vertex="1">
                    <mxGeometry x="620" y="30" width="120" height="60" as="geometry"/>
                </mxCell>
                <mxCell id="FTpakm-EZgbgmgh11vIP-15" value="" style="edgeStyle=orthogonalEdgeStyle;rounded=0;orthogonalLoop=1;jettySize=auto;html=1;fontSize=18;labelBorderColor=none;fontStyle=1;fontColor=#000000;" parent="1" source="FTpakm-EZgbgmgh11vIP-12" target="FTpakm-EZgbgmgh11vIP-14" edge="1">
                    <mxGeometry relative="1" as="geometry"/>
                </mxCell>
                <mxCell id="FTpakm-EZgbgmgh11vIP-12" value="&lt;span style=&quot;font-size: 18px;&quot;&gt;async lode resape&lt;/span&gt;" style="whiteSpace=wrap;html=1;fillColor=#f8cecc;strokeColor=#b85450;rounded=1;fontSize=18;labelBorderColor=none;fontStyle=1;fontColor=#000000;" parent="1" vertex="1">
                    <mxGeometry x="820" y="30" width="120" height="60" as="geometry"/>
                </mxCell>
                <mxCell id="FTpakm-EZgbgmgh11vIP-14" value="render resape" style="whiteSpace=wrap;html=1;fillColor=#d5e8d4;strokeColor=#82b366;rounded=1;fontSize=18;labelBorderColor=none;fontStyle=1;fontColor=#000000;" parent="1" vertex="1">
                    <mxGeometry x="1020" y="30" width="120" height="60" as="geometry"/>
                </mxCell>
                <mxCell id="FTpakm-EZgbgmgh11vIP-18" value="render pagination buttons" style="rounded=1;whiteSpace=wrap;html=1;fontSize=18;fillColor=#d5e8d4;strokeColor=#82b366;labelBorderColor=none;fontStyle=1;fontColor=#000000;" parent="1" vertex="1">
                    <mxGeometry x="420" y="140" width="120" height="60" as="geometry"/>
                </mxCell>
                <mxCell id="FTpakm-EZgbgmgh11vIP-21" style="edgeStyle=orthogonalEdgeStyle;rounded=0;orthogonalLoop=1;jettySize=auto;html=1;exitX=0.75;exitY=0;exitDx=0;exitDy=0;entryX=0.25;entryY=1;entryDx=0;entryDy=0;fontSize=18;labelBorderColor=none;fontStyle=1;fontColor=#000000;" parent="1" source="FTpakm-EZgbgmgh11vIP-19" target="FTpakm-EZgbgmgh11vIP-8" edge="1">
                    <mxGeometry relative="1" as="geometry">
                        <Array as="points">
                            <mxPoint x="110" y="120"/>
                            <mxPoint x="450" y="120"/>
                        </Array>
                    </mxGeometry>
                </mxCell>
                <mxCell id="FTpakm-EZgbgmgh11vIP-22" style="edgeStyle=orthogonalEdgeStyle;rounded=0;orthogonalLoop=1;jettySize=auto;html=1;fontSize=18;entryX=0;entryY=0.5;entryDx=0;entryDy=0;labelBorderColor=none;fontStyle=1;fontColor=#000000;" parent="1" source="FTpakm-EZgbgmgh11vIP-19" target="FTpakm-EZgbgmgh11vIP-18" edge="1">
                    <mxGeometry relative="1" as="geometry">
                        <mxPoint x="330" y="170" as="targetPoint"/>
                    </mxGeometry>
                </mxCell>
                <mxCell id="FTpakm-EZgbgmgh11vIP-25" value="bine handler" style="edgeStyle=orthogonalEdgeStyle;rounded=0;orthogonalLoop=1;jettySize=auto;html=1;exitX=1;exitY=0.75;exitDx=0;exitDy=0;entryX=0;entryY=0.75;entryDx=0;entryDy=0;fontSize=14;dashed=1;startArrow=classic;startFill=1;endArrow=none;endFill=0;labelBorderColor=none;fontStyle=1;fontColor=#FFFFFF;" parent="1" source="FTpakm-EZgbgmgh11vIP-19" target="FTpakm-EZgbgmgh11vIP-18" edge="1">
                    <mxGeometry relative="1" as="geometry"/>
                </mxCell>
                <mxCell id="FTpakm-EZgbgmgh11vIP-19" value="&lt;font style=&quot;font-size: 18px&quot;&gt;user click pagination&lt;/font&gt;" style="rounded=1;whiteSpace=wrap;html=1;fillColor=#fff2cc;strokeColor=#d6b656;fontSize=18;labelBorderColor=none;fontStyle=1;fontColor=#000000;" parent="1" vertex="1">
                    <mxGeometry x="20" y="140" width="120" height="60" as="geometry"/>
                </mxCell>
                <mxCell id="yW2DzFIb06D5BPLjl4mO-3" style="edgeStyle=orthogonalEdgeStyle;rounded=0;orthogonalLoop=1;jettySize=auto;html=1;exitX=1;exitY=0.25;exitDx=0;exitDy=0;entryX=0;entryY=0.75;entryDx=0;entryDy=0;fontSize=18;labelBorderColor=none;fontStyle=1;fontColor=#000000;" parent="1" source="yW2DzFIb06D5BPLjl4mO-2" target="FTpakm-EZgbgmgh11vIP-12" edge="1">
                    <mxGeometry relative="1" as="geometry"/>
                </mxCell>
                <mxCell id="yW2DzFIb06D5BPLjl4mO-2" value="&lt;font style=&quot;font-size: 18px&quot;&gt;page lode with recipe ID&lt;/font&gt;" style="rounded=1;whiteSpace=wrap;html=1;fillColor=#fff2cc;strokeColor=#d6b656;labelBorderColor=none;fontStyle=1;fontColor=#000000;" parent="1" vertex="1">
                    <mxGeometry x="620" y="140" width="120" height="60" as="geometry"/>
                </mxCell>
            </root>
        </mxGraphModel>
    </diagram>
</mxfile>